<?xml version="1.0" encoding="UTF-8" standalone="no"?>
<!-- Created with Inkscape (http://www.inkscape.org/) -->

<svg
   width="113.0157mm"
   height="113.01999mm"
   viewBox="0 0 113.0157 113.01999"
   version="1.1"
   id="svg1"
   sodipodi:docname="circlePandas2.svg"
   inkscape:export-filename="circletest2.svg"
   inkscape:export-xdpi="96"
   inkscape:export-ydpi="96"
   xml:space="preserve"
   inkscape:version="1.3 (0e150ed6c4, 2023-07-21)"
   xmlns:inkscape="http://www.inkscape.org/namespaces/inkscape"
   xmlns:sodipodi="http://sodipodi.sourceforge.net/DTD/sodipodi-0.dtd"
   xmlns:xlink="http://www.w3.org/1999/xlink"
   xmlns="http://www.w3.org/2000/svg"
   xmlns:svg="http://www.w3.org/2000/svg"><sodipodi:namedview
     id="namedview1"
     pagecolor="#ffffff"
     bordercolor="#000000"
     borderopacity="0.25"
     inkscape:showpageshadow="2"
     inkscape:pageopacity="0.0"
     inkscape:pagecheckerboard="0"
     inkscape:deskcolor="#d1d1d1"
     inkscape:document-units="mm"
     inkscape:zoom="0.73139029"
     inkscape:cx="395.13787"
     inkscape:cy="548.95451"
     inkscape:window-width="1920"
     inkscape:window-height="1017"
     inkscape:window-x="-8"
     inkscape:window-y="-8"
     inkscape:window-maximized="1"
     inkscape:current-layer="layer1" /><defs
     id="defs1"><linearGradient
       id="linearGradient179"
       inkscape:collect="always"><stop
         style="stop-color:#7a7a7a;stop-opacity:0;"
         offset="0"
         id="stop179" /><stop
         style="stop-color:#7a7a7a;stop-opacity:0;"
         offset="1"
         id="stop180" /></linearGradient><linearGradient
       id="linearGradient177"
       inkscape:collect="always"><stop
         style="stop-color:#11b3ff;stop-opacity:1;"
         offset="0.50289017"
         id="stop177" /><stop
         style="stop-color:#ffffff;stop-opacity:1"
         offset="1"
         id="stop178" /></linearGradient><linearGradient
       inkscape:collect="always"
       xlink:href="#linearGradient177"
       id="linearGradient178"
       x1="60.997829"
       y1="142.16936"
       x2="129.64616"
       y2="104.18519"
       gradientUnits="userSpaceOnUse"
       gradientTransform="translate(-297.83777,-120.9737)" /><linearGradient
       inkscape:collect="always"
       xlink:href="#linearGradient179"
       id="linearGradient180"
       x1="48.494514"
       y1="148.49226"
       x2="161.51021"
       y2="148.49226"
       gradientUnits="userSpaceOnUse"
       gradientTransform="translate(-285.62958,-127.29655)" /></defs><g
     inkscape:label="Calque 1"
     inkscape:groupmode="layer"
     id="layer1"
     style="stroke-width:1;stroke-dasharray:none"
     transform="translate(-48.494516,-91.982282)"><path
       style="fill:url(#linearGradient180);fill-opacity:0;stroke:url(#linearGradient178);stroke-width:1.6;stroke-miterlimit:4;stroke-dasharray:1.6, 1.6;stroke-dashoffset:0;stroke-opacity:1"
       id="path177"
       sodipodi:type="arc"
       sodipodi:cx="-180.62947"
       sodipodi:cy="21.195621"
       sodipodi:rx="55.71011"
       sodipodi:ry="55.71011"
       sodipodi:start="0"
       sodipodi:end="6.2794007"
       sodipodi:open="true"
       sodipodi:arc-type="arc"
       d="m -124.91936,21.195621 a 55.71011,55.71011 0 0 1 -55.6574,55.710085 55.71011,55.71011 0 0 1 -55.76272,-55.604664 55.71011,55.71011 0 0 1 55.55188,-55.815306 55.71011,55.71011 0 0 1 55.86784,55.499045"
       transform="rotate(-118.57225)" /></g><g
     inkscape:groupmode="layer"
     id="layer2"
     inkscape:label="Calque 2"
     transform="translate(-48.494516,-91.982282)"><path
       style="fill:#11adff;fill-opacity:1;stroke:#11adff;stroke-width:0.958729;stroke-dasharray:none;stroke-dashoffset:0;stroke-opacity:1"
       id="path178"
       sodipodi:type="arc"
       sodipodi:cx="105"
       sodipodi:cy="148.5"
       sodipodi:rx="49.94268"
       sodipodi:ry="49.94268"
       sodipodi:start="0"
       sodipodi:end="6.2794007"
       sodipodi:open="true"
       sodipodi:arc-type="arc"
       d="M 154.94268,148.5 A 49.94268,49.94268 0 0 1 105.04725,198.44266 49.94268,49.94268 0 0 1 55.057409,148.59451 49.94268,49.94268 0 0 1 104.85824,98.557521 49.94268,49.94268 0 0 1 154.94232,148.31099" /></g><path
     style="fill:#a461ff;fill-opacity:1;stroke:#fef900;stroke-width:2.15666;stroke-miterlimit:4;stroke-dasharray:2.15666, 4.31331;stroke-dashoffset:0;stroke-opacity:0"
     id="path179"
     sodipodi:type="arc"
     sodipodi:cx="60.484833"
     sodipodi:cy="52.896091"
     sodipodi:rx="31.207144"
     sodipodi:ry="31.207144"
     sodipodi:start="0"
     sodipodi:end="6.2794007"
     sodipodi:open="true"
     sodipodi:arc-type="arc"
     d="M 91.691977,52.896091 A 31.207144,31.207144 0 0 1 60.514359,84.103221 31.207144,31.207144 0 0 1 29.277745,52.955145 31.207144,31.207144 0 0 1 60.396253,21.689073 a 31.207144,31.207144 0 0 1 31.2955,31.088912" /><g
     id="g1"
     transform="matrix(0.56231899,0,0,0.54536552,20.303216,25.547056)"><path
       style="-inkscape-stroke:none"
       d="m 48.697,15.176 h 12.25 v 25.437 h -12.25 z m 0,52.251 h 12.25 v 25.436 h -12.25 z"
       color="#000000"
       fill="#130754"
       id="path1" /><path
       style="-inkscape-stroke:none"
       d="m 48.697,48.037 h 12.25 v 12.001 h -12.25 z"
       color="#000000"
       fill="#ffca00"
       id="path2" /><path
       style="-inkscape-stroke:none"
       d="m 29.017,36.087 h 12.25 v 84.552 H 29.017 Z M 67.97,88.414 H 80.22 V 113.85 H 67.97 Z m 0,-52.297 H 80.22 V 61.554 H 67.97 Z"
       color="#000000"
       fill="#130754"
       id="path3" /><path
       style="-inkscape-stroke:none"
       d="M 67.97,68.983 H 80.22 V 80.984 H 67.97 Z"
       color="#000000"
       fill="#e70488"
       id="path4" /><path
       style="-inkscape-stroke:none"
       d="m 87.238,8.55 h 12.25 v 84.552 h -12.25 z"
       color="#000000"
       fill="#130754"
       id="path5" /></g></svg>
